<svg width="24" height="25" viewBox="0 0 24 25" fill="none" xmlns="http://www.w3.org/2000/svg">
<path d="M1 23.5C1 19.5 4 14.5 8 14.5M16 14.5C20 14.5 23 19.5 23 23.5" stroke="white" stroke-width="2" stroke-linecap="round" stroke-linejoin="round"/>
<circle cx="12" cy="8.5" r="7" stroke="white" stroke-width="2"/>
<path d="M11 5.5C11 4.94772 10.5523 4.5 10 4.5C9.44772 4.5 9 4.94772 9 5.5H11ZM9 7.5C9 8.05228 9.44772 8.5 10 8.5C10.5523 8.5 11 8.05228 11 7.5H9ZM15 5.5C15 4.94772 14.5523 4.5 14 4.5C13.4477 4.5 13 4.94772 13 5.5H15ZM13 7.5C13 8.05228 13.4477 8.5 14 8.5C14.5523 8.5 15 8.05228 15 7.5H13ZM13 5.5V6.5H15V5.5H13ZM13 6.5V7.5H15V6.5H13ZM9 5.5V6.5H11V5.5H9ZM9 6.5V7.5H11V6.5H9Z" fill="white"/>
</svg>
