<svg width="10" height="10" viewBox="0 0 10 10" fill="none" xmlns="http://www.w3.org/2000/svg">
<path d="M4.58304 9.1159C4.90769 8.65456 9.5553 1.8711 9.91412 1.32432C10.0746 1.08511 9.99955 0.743373 9.77742 0.555419C9.5553 0.367464 9.14521 0.418724 8.97435 0.623766C8.83765 0.787799 5.30638 4.69042 3.55783 6.62123C2.72628 5.93776 1.02215 4.54348 0.858121 4.43412C0.65308 4.29743 0.311343 4.43412 0.191736 4.53664C0.0721281 4.63916 -0.0987398 4.9809 0.0721281 5.2372C0.242996 5.4935 2.19089 8.27865 2.66932 8.94503C3.14775 9.61142 3.60909 9.56016 3.69453 9.56016C3.77996 9.56016 4.25839 9.57724 4.58304 9.1159Z" fill="#88E564"/>
</svg>
