<svg width="15" height="15" viewBox="0 0 15 15" fill="none" xmlns="http://www.w3.org/2000/svg">
<path d="M10.3895 5.96373C11.1482 6.78192 11.1482 8.41828 10.3895 9.23646M11.3895 2.69101C14.3514 5.6001 14.1713 9.78192 11.3895 12.5092M1.38947 9.23646C1.38947 9.78192 1.89526 10.3274 2.40105 10.3274C2.80568 10.3274 3.74983 10.3274 3.91842 10.3274L6.44738 13.0546C6.61598 13.2365 7.05433 13.6001 7.45897 13.6001C7.8636 13.6001 7.96476 13.2365 7.96476 13.0546V2.14555C7.96476 1.96373 7.8636 1.6001 7.45897 1.6001C7.05433 1.6001 6.61598 1.96373 6.44738 2.14555L3.91842 4.87283C3.74983 4.87283 2.80568 4.87283 2.40105 4.87283C1.89526 4.87283 1.38947 5.41828 1.38947 5.96373C1.38947 6.4001 1.38947 7.96373 1.38947 9.23646Z" stroke="#BA6BD6" stroke-width="2" stroke-linecap="round" stroke-linejoin="round"/>
</svg>
