<svg width="16" height="15" viewBox="0 0 16 15" fill="none" xmlns="http://www.w3.org/2000/svg">
<path d="M7.33287 14.0855C7.8523 13.3474 15.2885 2.49383 15.8626 1.61899C16.1193 1.23624 15.9993 0.689466 15.6439 0.388739C15.2885 0.0880112 14.6323 0.170028 14.359 0.498094C14.1402 0.760547 8.49021 7.00474 5.69253 10.094C4.36204 9.00048 1.63545 6.76963 1.37299 6.59466C1.04493 6.37595 0.498149 6.59466 0.306777 6.75869C0.115405 6.92273 -0.157984 7.4695 0.115405 7.87959C0.388794 8.28967 3.50542 12.7459 4.27091 13.8121C5.0364 14.8783 5.77455 14.7963 5.91124 14.7963C6.04794 14.7963 6.81343 14.8237 7.33287 14.0855Z" fill="white"/>
</svg>
